<svg xmlns="http://www.w3.org/2000/svg" xmlns:xlink="http://www.w3.org/1999/xlink" width="246.773" height="54" viewBox="0 0 246.773 54">
  <defs>
    <clipPath id="clip-path">
      <rect id="Rectangle_1381" data-name="Rectangle 1381" width="79.704" height="54" fill="#262626"/>
    </clipPath>
    <clipPath id="clip-path-2">
      <rect id="Rectangle_1416" data-name="Rectangle 1416" width="112.637" height="43.2" fill="#262626"/>
    </clipPath>
    <clipPath id="clip-path-3">
      <path id="Path_26" data-name="Path 26" d="M497.458,38.515c-.943-.083-1.608-.388-1.582-1.394h7c.026,1.006-.639,1.311-1.582,1.394-.425.037-1.147.1-1.916.105v-.005h0v.005c-.769-.006-1.491-.068-1.916-.105m-2.083-3.3a.875.875,0,0,1,.875-.875H502.5a.875.875,0,0,1,0,1.75H496.25a.875.875,0,0,1-.875-.875M503.49,31.4l-.574,1.891h-7.083L495.26,31.4l-.467-1.031-6.324,9.884a21.046,21.046,0,0,0,10.87,2.943h.072a21.046,21.046,0,0,0,10.87-2.943l-6.324-9.884Zm-25.748-8.826A21.77,21.77,0,0,0,486.7,39.165l6.949-10.641c.062-.287-1.089-1.424-1.319-1.718a8.8,8.8,0,0,1-1.867-4.229Zm30.544,0a8.8,8.8,0,0,1-1.867,4.229c-.229.294-1.381,1.431-1.319,1.718l6.949,10.641a21.77,21.77,0,0,0,8.958-16.588Zm-30.544-2H490.33a9.283,9.283,0,0,1,1.9-4.99c.358-.457.8-.831,1.15-1.294l-6.619-10.24a21.428,21.428,0,0,0-9.023,16.524m27.623-6.284c.347.464.791.837,1.15,1.294a9.283,9.283,0,0,1,1.9,4.99h12.588a21.428,21.428,0,0,0-9.023-16.524ZM499.41,0h-.072A21.673,21.673,0,0,0,488.4,2.925l6.7,10.249a9.25,9.25,0,0,1,8.548,0l6.7-10.249A21.673,21.673,0,0,0,499.41,0Z" transform="translate(-477.742)" fill="#ff8400"/>
    </clipPath>
    <clipPath id="clip-path-4">
      <rect id="Rectangle_2752" data-name="Rectangle 2752" width="16.2" height="16.2" fill="#262626"/>
    </clipPath>
  </defs>
  <g id="Group_2678" data-name="Group 2678" transform="translate(-4821.512 2344)">
    <g id="Group_2148" data-name="Group 2148" transform="translate(4821.512 -2344)">
      <g id="Group_3" data-name="Group 3" clip-path="url(#clip-path)">
        <path id="Path_9" data-name="Path 9" d="M47.088,48.456a18.586,18.586,0,0,0,3.181,2.532l5.761-5.761a11.534,11.534,0,0,1-3.29-2.243,11.35,11.35,0,0,1-2.448-3.528,11.185,11.185,0,0,1-.972-4.248V19.08a10.46,10.46,0,0,1,.9-4.32,11.675,11.675,0,0,1,2.412-3.528A11.042,11.042,0,0,1,56.2,8.856a11.293,11.293,0,0,1,4.428-.864,10.85,10.85,0,0,1,4.32.864,11.158,11.158,0,0,1,3.528,2.376,11.693,11.693,0,0,1,2.412,3.528,10.476,10.476,0,0,1,.9,4.32V29.473l7.92-7.92V19.08a18.555,18.555,0,0,0-1.512-7.452,19.426,19.426,0,0,0-4.1-6.084A19.046,19.046,0,0,0,41.544,19.08V35.064a18.5,18.5,0,0,0,1.476,7.344,19.038,19.038,0,0,0,4.068,6.048" transform="translate(0)" fill="#262626"/>
        <path id="Path_10" data-name="Path 10" d="M37.188,12.384a18.675,18.675,0,0,0-4.211-6.336,17.647,17.647,0,0,0-6.408-4.356,19.537,19.537,0,0,0-14.545,0A17.614,17.614,0,0,0,5.616,6.048,18.664,18.664,0,0,0,1.4,12.384a19.32,19.32,0,0,0-1.4,7.2,19.867,19.867,0,0,0,1.4,7.272,18.473,18.473,0,0,0,4.212,6.408,20,20,0,0,0,2.129,1.83l5.79-5.79A8.663,8.663,0,0,1,11.3,27.648,10.515,10.515,0,0,1,8.748,23.9a11.311,11.311,0,0,1,0-8.5A10.55,10.55,0,0,1,11.3,11.664a9.86,9.86,0,0,1,3.672-2.556,11.458,11.458,0,0,1,4.248-.828,11.737,11.737,0,0,1,4.284.828,10.464,10.464,0,0,1,3.78,2.556,10.55,10.55,0,0,1,2.556,3.744,11.3,11.3,0,0,1,0,8.5,10.515,10.515,0,0,1-2.556,3.744l-14.9,14.9L.937,54h11.3L27,39.168l5.977-5.9a18.484,18.484,0,0,0,4.211-6.408,19.846,19.846,0,0,0,1.4-7.272,19.3,19.3,0,0,0-1.4-7.2" transform="translate(0 0)" fill="#262626"/>
      </g>
    </g>
    <g id="Group_43" data-name="Group 43" transform="translate(4955.647 -2338.6)">
      <g id="Group_42" data-name="Group 42" clip-path="url(#clip-path-2)">
        <path id="Path_23" data-name="Path 23" d="M1160.6,40.568c.016.424.019.91,0,1.332a11.348,11.348,0,0,1-4.165,8.259c-6.115,5.022-16.527,4.656-23.742,2.567a22.914,22.914,0,0,1-6.533-2.94l3.709-8.281a25.5,25.5,0,0,0,14.512,3.859c1.619-.091,4.461-.573,5.011-2.383.876-2.885-2.306-3.709-4.377-4.312-7.151-2.082-17.657-2.5-18.185-12.256-.83-15.321,21.107-15.95,30.976-10.932a11.569,11.569,0,0,1,1.1.636l-3.466,8.393a22.643,22.643,0,0,0-12.191-3.066c-2.325.126-5.525,1.025-5.225,3.966.2,1.919,3.317,2.605,4.847,3.013,7.07,1.885,17.357,2.615,17.731,12.144" transform="translate(-1047.978 -11.796)" fill="#262626"/>
        <path id="Path_24" data-name="Path 24" d="M31.237,23.869V32.6H11.123v6.729H28.839v8.394H11.223l-.1.1v7.228H31.97v8.728H0V23.869Z" transform="translate(0 -22.211)" fill="#262626"/>
        <path id="Path_25" data-name="Path 25" d="M1578.5,144.538a1.638,1.638,0,1,1-1.633-1.594,1.6,1.6,0,0,1,1.633,1.594m-2.867,0a1.235,1.235,0,0,0,1.244,1.273,1.221,1.221,0,0,0,1.215-1.264,1.23,1.23,0,1,0-2.459-.01m.982.836h-.369V143.78a3.227,3.227,0,0,1,.612-.049.994.994,0,0,1,.554.117.442.442,0,0,1,.156.35.408.408,0,0,1-.33.369v.02a.47.47,0,0,1,.292.389,1.224,1.224,0,0,0,.117.4h-.4a1.363,1.363,0,0,1-.126-.389c-.029-.175-.126-.253-.331-.253h-.175Zm.01-.9h.175c.2,0,.369-.068.369-.233,0-.146-.107-.243-.34-.243a.881.881,0,0,0-.2.019Z" transform="translate(-1465.86 -133.02)" fill="#262626"/>
      </g>
    </g>
    <g id="Group_45" data-name="Group 45" transform="translate(4988.815 -2338.6)">
      <g id="Group_44" data-name="Group 44" clip-path="url(#clip-path-3)">
        <rect id="Rectangle_1417" data-name="Rectangle 1417" width="43.265" height="43.205" transform="translate(0 -0.002)" fill="#ff8400"/>
      </g>
    </g>
    <g id="Group_2150" data-name="Group 2150" transform="translate(4920.332 -2325.1)">
      <g id="Group_2149" data-name="Group 2149" transform="translate(0 0)" clip-path="url(#clip-path-4)">
        <path id="Path_866" data-name="Path 866" d="M10.35,8.1,15.734,2.72A1.593,1.593,0,0,0,13.482.466L8.1,5.851,2.719.466A1.593,1.593,0,0,0,.466,2.72L5.847,8.1.455,13.5a1.593,1.593,0,0,0,2.262,2.243L8.1,10.361l5.385,5.388A1.593,1.593,0,0,0,15.738,13.5Z" transform="translate(0 0)" fill="#262626"/>
      </g>
    </g>
  </g>
</svg>
